<svg width="101" height="117" viewBox="0 0 101 117" fill="none" xmlns="http://www.w3.org/2000/svg">
<path d="M50.3864 62.1437C48.3534 62.1516 46.3793 62.8271 44.7675 64.0661C43.1557 65.3052 41.9955 67.0394 41.4652 69.002C40.9349 70.9647 41.064 73.0472 41.8324 74.9294C42.6009 76.8115 43.9663 78.3892 45.7187 79.4199V92.6545H55.168V79.4199C56.5544 78.5998 57.7051 77.4349 58.508 76.0384C59.311 74.6419 59.7389 73.0615 59.7503 71.4507V71.4507C59.7503 70.2236 59.5077 69.0087 59.0364 67.8759C58.5651 66.743 57.8745 65.7144 57.0042 64.8495C56.134 63.9845 55.1013 63.3001 53.9655 62.8358C52.8298 62.3714 51.6134 62.1362 50.3864 62.1437V62.1437Z" stroke="#DFA72C" stroke-width="6" stroke-linecap="round" stroke-linejoin="round"/>
<path d="M85.3663 40.7695H15.3794C8.58882 40.7695 3.08398 46.2744 3.08398 53.0649V101.706C3.08398 108.496 8.58882 114.001 15.3794 114.001H85.3663C92.1569 114.001 97.6617 108.496 97.6617 101.706V53.0649C97.6617 46.2744 92.1569 40.7695 85.3663 40.7695Z" stroke="#DFA72C" stroke-width="6" stroke-linecap="round" stroke-linejoin="round"/>
<path d="M20.0752 40.7685V33.34C20.0752 25.2933 23.2717 17.5762 28.9616 11.8864C34.6514 6.19653 42.3685 3 50.4152 3C58.4619 3 66.179 6.19653 71.8689 11.8864C77.5587 17.5762 80.7552 25.2933 80.7552 33.34V40.7685" stroke="#DFA72C" stroke-width="6" stroke-linecap="round" stroke-linejoin="round"/>
</svg>
